<svg width="36" height="32" viewBox="0 0 36 32" fill="none" xmlns="http://www.w3.org/2000/svg">
<path d="M17.4654 30C25.8917 30 32.7225 23.732 32.7225 16C32.7225 8.26801 25.8917 2 17.4654 2C9.03911 2 2.20825 8.26801 2.20825 16C2.20825 23.732 9.03911 30 17.4654 30Z" fill="white"/>
<path d="M18.0398 0C8.69406 0 1.11841 7.16334 1.11841 16C1.11841 24.8366 8.69406 32 18.0398 32C27.3857 32 34.9613 24.8366 34.9613 16C34.9613 7.16334 27.3857 0 18.0398 0ZM23.2817 16.148C23.2817 13.4927 21.005 11.3397 18.1963 11.3397C15.3881 11.3397 13.1114 13.4923 13.1114 16.148C13.1114 18.8033 15.3881 20.9559 18.1963 20.9559V23.7036C13.7834 23.7036 10.2055 20.321 10.2055 16.148C10.2055 11.9751 13.783 8.5924 18.1963 8.5924C22.6098 8.5924 26.1873 11.9751 26.1873 16.148H23.2817ZM28.1849 16.148C28.1849 10.9321 23.7132 6.7036 18.1963 6.7036C12.6801 6.7036 8.20824 10.9321 8.20824 16.148C8.20824 21.3638 12.6801 25.592 18.1963 25.592V28.7404C10.8413 28.7404 4.87845 23.1024 4.87845 16.148C4.87845 9.19327 10.8413 3.5556 18.1963 3.5556C25.5518 3.5556 31.5144 9.19327 31.5144 16.148H28.1849Z" fill="#F43E37"/>
</svg>
