<svg width="36" height="32" viewBox="0 0 36 32" fill="none" xmlns="http://www.w3.org/2000/svg">
<path d="M17.9686 30C26.4325 30 33.2939 23.704 33.2939 15.9375C33.2939 8.171 26.4325 1.875 17.9686 1.875C9.50473 1.875 2.64337 8.171 2.64337 15.9375C2.64337 23.704 9.50473 30 17.9686 30Z" fill="white" stroke="#363F46" stroke-width="2.42578" stroke-linecap="round"/>
<path d="M9.64862 9.99902C9.64862 9.99902 7.52936 12.1928 7.52936 16.0258C7.52936 19.8588 9.64862 21.9642 9.64862 21.9642" fill="white"/>
<path d="M9.64862 9.99902C9.64862 9.99902 7.52936 12.1928 7.52936 16.0258C7.52936 19.8588 9.64862 21.9642 9.64862 21.9642" stroke="#FC7E0F" stroke-width="2.42578" stroke-linecap="round"/>
<path d="M26.5326 9.99902C26.5326 9.99902 28.6518 12.1928 28.6518 16.0258C28.6518 19.8588 26.5326 21.9642 26.5326 21.9642" fill="white"/>
<path d="M26.5326 9.99902C26.5326 9.99902 28.6518 12.1928 28.6518 16.0258C28.6518 19.8588 26.5326 21.9642 26.5326 21.9642" stroke="#FC7E0F" stroke-width="2.42578" stroke-linecap="round"/>
<path d="M23.1526 12.5625C23.1526 12.5625 24.5801 14.1938 24.545 16.0179C24.5012 18.2116 23.1701 19.417 23.1701 19.417" fill="white"/>
<path d="M23.1526 12.5625C23.1526 12.5625 24.5801 14.1938 24.545 16.0179C24.5012 18.2116 23.1701 19.417 23.1701 19.417" stroke="#FC7E0F" stroke-width="2.42578" stroke-linecap="round"/>
<path d="M12.9591 12.5625C12.9591 12.5625 11.5316 14.1938 11.5667 16.0179C11.6105 18.2116 12.9416 19.417 12.9416 19.417" fill="white"/>
<path d="M12.9591 12.5625C12.9591 12.5625 11.5316 14.1938 11.5667 16.0179C11.6105 18.2116 12.9416 19.417 12.9416 19.417" stroke="#FC7E0F" stroke-width="2.42578" stroke-linecap="round"/>
<path d="M17.9668 18.1206C19.2806 18.1206 20.3456 17.1433 20.3456 15.9377C20.3456 14.7322 19.2806 13.7549 17.9668 13.7549C16.6529 13.7549 15.5879 14.7322 15.5879 15.9377C15.5879 17.1433 16.6529 18.1206 17.9668 18.1206Z" fill="#363F46"/>
<path d="M18.3688 17.9767L16.6813 17.5605L13.8712 27.1924L15.5588 27.6085L18.3688 17.9767Z" fill="#363F46"/>
<path d="M17.7153 17.964L19.3954 17.5547L22.1906 27.1934L20.5104 27.6027L17.7153 17.964Z" fill="#363F46"/>
<path d="M16.1541 23.1618L16.7785 22.5752L21.105 26.4429L20.4805 27.0296L16.1541 23.1618Z" fill="#363F46"/>
<path d="M19.8186 23.1825L19.2536 22.6572L14.9642 26.5659L15.5292 27.0912L19.8186 23.1825Z" fill="#363F46"/>
</svg>
