<svg width="36" height="32" viewBox="0 0 36 32" fill="none" xmlns="http://www.w3.org/2000/svg">
<g clip-path="url(#clip0_2_30)">
<path fill-rule="evenodd" clip-rule="evenodd" d="M34.3839 27.7357C34.0448 28.5258 33.2627 29.6383 32.1534 30.4219C31.513 30.8745 30.7484 31.3072 29.6982 31.5927C28.5786 31.8971 27.1996 32 25.4833 32H9.79033C8.07416 32 6.69519 31.8971 5.57552 31.5927C4.52528 31.3072 3.76081 30.8745 3.12025 30.4219C2.01111 29.6382 1.22877 28.5258 0.889776 27.7357C0.206941 26.1438 0.200012 24.3376 0.200012 23.2V8.79997C0.200012 7.66243 0.206941 5.85622 0.889776 4.26429C1.22877 3.47418 2.01097 2.36169 3.12025 1.57806C3.76067 1.12546 4.52528 0.692826 5.57552 0.407328C6.69504 0.102881 8.07402 0 9.79033 0H25.4835C27.1996 0 28.5786 0.102881 29.6983 0.407328C30.7485 0.692826 31.513 1.12559 32.1535 1.57806C33.2627 2.36182 34.045 3.47418 34.384 4.26429C35.0668 5.85622 35.0738 7.66243 35.0738 8.79997V23.2C35.0736 24.3375 35.0667 26.1437 34.3839 27.7357Z" fill="url(#paint0_linear_2_30)"/>
<path d="M20.1661 18.3933C19.6427 17.8867 18.7236 17.5619 17.6385 17.5619C16.5534 17.5619 15.6342 17.8867 15.1109 18.3933C14.8379 18.6577 14.6935 18.9287 14.648 19.3148C14.5599 20.0625 14.6094 20.7062 14.7049 21.7354C14.7958 22.7161 14.9685 24.024 15.1938 25.356C15.3542 26.3039 15.4844 26.8155 15.6031 27.1819C15.7954 27.7756 16.5143 28.2949 17.6385 28.2949C18.7626 28.2949 19.4816 27.7755 19.6739 27.1819C19.7925 26.8155 19.9228 26.3039 20.0831 25.356C20.3085 24.024 20.4811 22.7161 20.5721 21.7354C20.6676 20.7061 20.7171 20.0623 20.6289 19.3148C20.5834 18.9289 20.439 18.6577 20.1661 18.3933ZM14.7871 13.8822C14.7871 15.3285 16.0649 16.501 17.6412 16.501C19.2175 16.501 20.4953 15.3285 20.4953 13.8822C20.4953 12.4358 19.2175 11.2633 17.6412 11.2633C16.0649 11.2633 14.7871 12.4358 14.7871 13.8822ZM17.6058 3.54704C10.9309 3.56447 5.46144 8.53341 5.37883 14.658C5.31175 19.6193 8.76321 23.8632 13.5827 25.4188C13.6996 25.4565 13.8184 25.3674 13.8 25.2549C13.7368 24.8696 13.6772 24.4825 13.6225 24.1019C13.6031 23.9674 13.5097 23.8514 13.3742 23.7971C9.56495 22.27 6.90499 18.7644 6.94768 14.7037C7.00366 9.37477 11.746 5.03036 17.5535 4.98725C23.4905 4.94325 28.3357 9.36219 28.3357 14.8C28.3357 18.82 25.6874 22.2826 21.9078 23.7975C21.7724 23.8518 21.6796 23.9681 21.6603 24.1026C21.6056 24.483 21.546 24.87 21.4829 25.2549C21.4643 25.3674 21.5831 25.4565 21.7001 25.4189C26.4735 23.8782 29.9049 19.7003 29.9049 14.8001C29.9046 8.58415 24.3841 3.52924 17.6058 3.54704ZM17.3842 8.70954C21.1681 8.57512 24.2931 11.3607 24.2931 14.8034C24.2931 16.5543 23.4847 18.1351 22.1926 19.2483C22.083 19.3427 22.024 19.4767 22.0325 19.6144C22.0583 20.0332 22.0489 20.4402 22.0185 20.8998C22.0103 21.0222 22.1601 21.1004 22.2704 21.0314C24.4372 19.6727 25.8623 17.3881 25.8623 14.8034C25.8623 10.5478 21.9993 7.10439 17.322 7.27073C12.9753 7.42537 9.48789 10.7139 9.43218 14.7053C9.39559 17.3303 10.8294 19.6559 13.0241 21.0316C13.1343 21.1007 13.2834 21.0224 13.2753 20.9C13.2448 20.4402 13.2355 20.0332 13.2611 19.6144C13.2696 19.4768 13.2109 19.3428 13.1015 19.2486C11.7691 18.1007 10.9509 16.4558 11.003 14.6398C11.0947 11.444 13.9027 8.83328 17.3842 8.70954Z" fill="white"/>
</g>
<defs>
<linearGradient id="paint0_linear_2_30" x1="17.6369" y1="0" x2="17.6369" y2="32" gradientUnits="userSpaceOnUse">
<stop stop-color="#F452FF"/>
<stop offset="1" stop-color="#832BC1"/>
</linearGradient>
<clipPath id="clip0_2_30">
<rect width="34.8735" height="32" fill="white" transform="translate(0.200012)"/>
</clipPath>
</defs>
</svg>
