<svg width="35" height="32" viewBox="0 0 35 32" fill="none" xmlns="http://www.w3.org/2000/svg">
<path d="M17.4361 0.0527344C7.83568 0.0527344 0.0526733 7.19426 0.0526733 16.0036C0.0526733 24.8133 7.83568 31.9543 17.4361 31.9543C27.0375 31.9543 34.8196 24.8133 34.8196 16.0036C34.8196 7.19483 27.0375 0.0534963 17.4359 0.0534963L17.4361 0.0527344ZM25.4079 23.0584C25.0966 23.527 24.4282 23.6756 23.9175 23.388C19.8361 21.1004 14.6981 20.5823 8.64712 21.8508C8.06402 21.9727 7.48279 21.6375 7.34995 21.1023C7.21647 20.567 7.58036 20.0337 8.16491 19.9118C14.7867 18.523 20.4667 19.1213 25.0488 21.6908C25.5595 21.9784 25.7215 22.5899 25.4079 23.0584ZM27.5356 18.7146C27.1433 19.3004 26.3089 19.4851 25.6716 19.1251C20.9989 16.4891 13.8763 15.7259 8.34944 17.2653C7.63267 17.464 6.87562 17.0933 6.65808 16.4367C6.4422 15.779 6.84635 15.0857 7.56189 14.8857C13.8751 13.128 21.7234 13.9794 27.0894 17.0051C27.7267 17.3651 27.928 18.1308 27.5356 18.7148V18.7146ZM27.7183 14.192C22.1158 11.1384 12.8722 10.8577 7.52307 12.3474C6.66411 12.5864 5.75573 12.1415 5.49543 11.3533C5.23512 10.5647 5.71961 9.73178 6.5792 9.49216C12.7197 7.78169 22.9273 8.11216 29.3777 11.6259C30.152 12.0466 30.4053 12.9623 29.9465 13.6703C29.4899 14.3792 28.4893 14.6129 27.7192 14.192H27.7183Z" fill="#1ED760"/>
</svg>
