<svg width="36" height="32" viewBox="0 0 36 32" fill="none" xmlns="http://www.w3.org/2000/svg">
<g clip-path="url(#clip0_2_33)">
<path d="M35.3021 16C35.3021 24.8889 27.5291 32 18.1193 32C8.70977 32 0.800232 24.8889 0.800232 16C0.800232 7.11112 8.57339 0 17.983 0C27.3926 0 35.3021 7.11112 35.3021 16Z" fill="url(#paint0_linear_2_33)"/>
<path d="M5.88938 17.069C5.89604 17.0161 5.93691 16.9789 5.98842 16.9789C6.03806 16.9789 6.07919 17.0161 6.08689 17.0687L6.30085 18.3457L6.08689 19.601C6.07894 19.6536 6.03831 19.6902 5.98842 19.6902C5.93688 19.6902 5.89604 19.6533 5.88938 19.6005L5.70886 18.3457L5.88938 17.069Z" fill="white"/>
<path d="M6.9011 16.1888C6.95313 16.1888 6.99534 16.2267 7.00384 16.2815L7.27963 18.3458L7.00357 20.3649C6.99509 20.4196 6.95286 20.4576 6.9011 20.4576C6.84855 20.4576 6.80528 20.4185 6.79837 20.3644L6.55573 18.3458L6.79837 16.2815C6.80553 16.2279 6.8488 16.1888 6.9011 16.1888Z" fill="white"/>
<path d="M10.6412 14.5498C10.6459 14.4534 10.7283 14.3774 10.8279 14.3774C10.9268 14.3774 11.0088 14.4534 11.0147 14.5498L11.2332 18.3476L11.0147 20.8022V20.8015C11.0089 20.8977 10.9268 20.9736 10.8279 20.9736C10.7283 20.9736 10.6462 20.8979 10.6412 20.802L10.448 18.3476L10.6412 14.5498Z" fill="white"/>
<path d="M8.70347 15.8302C8.70959 15.7543 8.77197 15.6975 8.84842 15.6975C8.92407 15.6975 8.98645 15.7543 8.99311 15.8297L9.24052 18.3466L8.99311 20.7812C8.98645 20.8566 8.92407 20.9135 8.84842 20.9135C8.77195 20.9135 8.7093 20.8566 8.70347 20.7812L8.48578 18.3466L8.70347 15.8302Z" fill="white"/>
<path d="M13.0673 20.7619C13.0623 20.8806 12.9619 20.9733 12.8386 20.9733C12.7142 20.9733 12.6136 20.8803 12.6097 20.7627L12.4417 18.3485L12.6097 13.2928C12.6137 13.1741 12.7143 13.0812 12.8388 13.0812C12.9622 13.0812 13.0626 13.1739 13.0676 13.2925L13.2569 18.3488L13.0673 20.7619Z" fill="white"/>
<path d="M17.2693 20.6944C17.2662 20.8545 17.126 20.9848 16.9561 20.9848C16.7861 20.9848 16.6455 20.8545 16.6428 20.6958C16.6428 20.6958 16.5247 18.3522 16.5247 18.3485L16.6428 12.511C16.6454 12.3506 16.7859 12.2203 16.9561 12.2203C17.126 12.2203 17.2664 12.3509 17.2693 12.5108L17.4015 18.3504L17.2693 20.6944Z" fill="white"/>
<path d="M15.1528 20.724C15.1488 20.8649 15.0295 20.9754 14.8817 20.9754C14.7328 20.9754 14.6137 20.8649 14.6104 20.7255L14.4671 18.3495L14.6102 13.2563C14.6134 13.1154 14.7326 13.0051 14.8816 13.0051C15.0293 13.0051 15.1484 13.1154 15.1525 13.2563L15.3137 18.3492L15.1528 20.7257V20.724Z" fill="white"/>
<path d="M10.0001 20.8012C9.9934 20.8875 9.92227 20.953 9.83435 20.953C9.74521 20.953 9.67436 20.8875 9.66845 20.8009L9.46326 18.3463L9.66845 16.0121C9.67408 15.9253 9.74521 15.8597 9.83435 15.8597C9.92255 15.8597 9.99368 15.9248 10.0001 16.011L10.2331 18.3463L10.0001 20.8012Z" fill="white"/>
<path d="M7.99432 20.7063C7.98689 20.7716 7.93485 20.8188 7.87063 20.8188C7.80531 20.8188 7.75327 20.7713 7.74689 20.7059L7.51648 18.3461L7.74689 15.8969C7.75353 15.8317 7.80555 15.7842 7.87061 15.7842C7.93484 15.7842 7.98687 15.8315 7.99457 15.8969L8.25607 18.3461L7.99432 20.7063Z" fill="white"/>
<path d="M15.622 13.4426C15.6252 13.2903 15.7539 13.1714 15.9146 13.1714C16.0749 13.1714 16.2028 13.2903 16.2065 13.4421L16.3531 18.3499L16.2065 20.7111V20.7091C16.2028 20.8613 16.0749 20.98 15.9146 20.98C15.7537 20.98 15.6252 20.8611 15.622 20.7108L15.4915 18.3497L15.622 13.4426Z" fill="white"/>
<path d="M12.0374 20.7863C12.0321 20.8938 11.9405 20.9782 11.8296 20.9782C11.7176 20.9782 11.6262 20.8938 11.6217 20.7873L11.4409 18.3483L11.6214 13.6817C11.6263 13.5742 11.7176 13.4899 11.8296 13.4899C11.9405 13.4899 12.0318 13.5739 12.0374 13.6817L12.2413 18.3483L12.0374 20.7863Z" fill="white"/>
<path d="M14.1062 20.7478V20.7475C14.1014 20.8764 13.9921 20.9777 13.8564 20.9777C13.7203 20.9777 13.6104 20.876 13.6066 20.7476L13.4508 18.3485L13.6064 13.1221C13.61 12.9921 13.72 12.8905 13.8564 12.8905C13.9921 12.8905 14.102 12.9923 14.1062 13.1221L14.2814 18.3488L14.1062 20.7465V20.7475C14.1062 20.7472 14.1062 20.747 14.1062 20.7468V20.7478Z" fill="white"/>
<path d="M26.1829 15.5558C26.5445 15.4147 26.9414 15.3364 27.3574 15.3364C29.0341 15.3364 30.3933 16.6024 30.3933 18.164C30.3933 19.7255 29.0338 20.9914 27.3572 20.9914C27.3029 20.9914 18.9488 20.9875 18.941 20.9867C18.7597 20.9696 18.6156 20.8255 18.6132 20.6525V11.6794C18.6154 11.5145 18.6764 11.4295 18.9055 11.3469C19.4951 11.1346 20.1628 11.009 20.8476 11.009C23.6468 11.009 25.9413 13.0078 26.1829 15.5558Z" fill="white"/>
<path d="M17.6577 11.982C17.6605 11.8108 17.8102 11.6714 17.9925 11.6714C18.1744 11.6714 18.324 11.8108 18.3268 11.9816L18.4756 18.351L18.3268 20.6628V20.66C18.324 20.8314 18.1744 20.9705 17.9925 20.9705C17.8102 20.9705 17.6605 20.8314 17.6581 20.6625L17.5208 18.351L17.6577 11.982Z" fill="white"/>
</g>
<defs>
<linearGradient id="paint0_linear_2_33" x1="18.0512" y1="0" x2="18.0512" y2="32" gradientUnits="userSpaceOnUse">
<stop stop-color="#FF7602"/>
<stop offset="1" stop-color="#FF3502"/>
</linearGradient>
<clipPath id="clip0_2_33">
<rect width="34.8735" height="32" fill="white" transform="translate(0.799988)"/>
</clipPath>
</defs>
</svg>
